<svg width="945" height="308" viewBox="0 0 945 308" fill="none" xmlns="http://www.w3.org/2000/svg">
<path fill-rule="evenodd" clip-rule="evenodd" d="M810.5 399C833.487 399 854.224 389.365 868.892 373.914C876.792 379.63 886.503 383 897 383C923.51 383 945 361.51 945 335C945 308.49 923.51 287 897 287C892.931 287 888.981 287.506 885.208 288.459C873.302 258.88 844.34 238 810.5 238C766.041 238 730 274.041 730 318.5C730 321.714 730.188 324.884 730.555 328H707C693.745 328 683 338.745 683 352C683 365.255 693.745 376 707 376H754.162C768.681 390.228 788.566 399 810.5 399Z" fill="white"/>
<path fill-rule="evenodd" clip-rule="evenodd" d="M679.5 365C702.487 365 723.224 355.365 737.892 339.914C745.792 345.63 755.503 349 766 349C792.51 349 814 327.51 814 301C814 274.49 792.51 253 766 253C761.931 253 757.981 253.506 754.208 254.459C742.302 224.88 713.34 204 679.5 204C635.041 204 599 240.041 599 284.5C599 287.714 599.188 290.884 599.555 294H576C562.745 294 552 304.745 552 318C552 331.255 562.745 342 576 342H623.162C637.681 356.228 657.566 365 679.5 365Z" fill="white"/>
<path fill-rule="evenodd" clip-rule="evenodd" d="M548.5 331C571.487 331 592.224 321.365 606.892 305.914C614.792 311.63 624.503 315 635 315C661.51 315 683 293.51 683 267C683 240.49 661.51 219 635 219C630.931 219 626.981 219.506 623.208 220.459C611.302 190.88 582.34 170 548.5 170C504.041 170 468 206.041 468 250.5C468 253.714 468.188 256.884 468.555 260H445C431.745 260 421 270.745 421 284C421 297.255 431.745 308 445 308H492.162C506.681 322.228 526.566 331 548.5 331Z" fill="white"/>
<path fill-rule="evenodd" clip-rule="evenodd" d="M373.5 354C396.487 354 417.224 344.365 431.892 328.914C439.792 334.63 449.503 338 460 338C486.51 338 508 316.51 508 290C508 263.49 486.51 242 460 242C455.931 242 451.981 242.506 448.208 243.459C436.302 213.88 407.34 193 373.5 193C329.041 193 293 229.041 293 273.5C293 276.714 293.188 279.884 293.555 283H270C256.745 283 246 293.745 246 307C246 320.255 256.745 331 270 331H317.162C331.681 345.228 351.566 354 373.5 354Z" fill="white"/>
<path fill-rule="evenodd" clip-rule="evenodd" d="M400.5 285C423.487 285 444.224 275.365 458.892 259.914C466.792 265.63 476.503 269 487 269C513.51 269 535 247.51 535 221C535 194.49 513.51 173 487 173C482.931 173 478.981 173.506 475.208 174.459C463.302 144.88 434.34 124 400.5 124C356.041 124 320 160.041 320 204.5C320 207.714 320.188 210.884 320.555 214H297C283.745 214 273 224.745 273 238C273 251.255 283.745 262 297 262H344.162C358.681 276.228 378.566 285 400.5 285Z" fill="white"/>
<path fill-rule="evenodd" clip-rule="evenodd" d="M242.5 251C265.487 251 286.224 241.365 300.892 225.914C308.792 231.63 318.503 235 329 235C355.51 235 377 213.51 377 187C377 160.49 355.51 139 329 139C324.931 139 320.981 139.506 317.208 140.459C305.302 110.88 276.34 90 242.5 90C198.041 90 162 126.041 162 170.5C162 173.714 162.188 176.884 162.555 180H139C125.745 180 115 190.745 115 204C115 217.255 125.745 228 139 228H186.162C200.681 242.228 220.566 251 242.5 251Z" fill="white"/>
<path fill-rule="evenodd" clip-rule="evenodd" d="M216.5 349C239.487 349 260.224 339.365 274.892 323.914C282.792 329.63 292.503 333 303 333C329.51 333 351 311.51 351 285C351 258.49 329.51 237 303 237C298.931 237 294.981 237.506 291.208 238.459C279.302 208.88 250.34 188 216.5 188C172.041 188 136 224.041 136 268.5C136 271.714 136.188 274.884 136.555 278H113C99.7452 278 89 288.745 89 302C89 315.255 99.7452 326 113 326H160.162C174.681 340.228 194.566 349 216.5 349Z" fill="white"/>
<path fill-rule="evenodd" clip-rule="evenodd" d="M41.5 332C64.487 332 85.2236 322.365 99.8919 306.914C107.792 312.63 117.503 316 128 316C154.51 316 176 294.51 176 268C176 241.49 154.51 220 128 220C123.931 220 119.981 220.506 116.208 221.459C104.302 191.88 75.3396 171 41.5 171C-2.95892 171 -39 207.041 -39 251.5C-39 254.714 -38.8116 257.884 -38.4453 261H-62C-75.2548 261 -86 271.745 -86 285C-86 298.255 -75.2548 309 -62 309H-14.8383C-0.319122 323.228 19.566 332 41.5 332Z" fill="white"/>
<path fill-rule="evenodd" clip-rule="evenodd" d="M69.5 252C92.487 252 113.224 242.365 127.892 226.914C135.792 232.63 145.503 236 156 236C182.51 236 204 214.51 204 188C204 161.49 182.51 140 156 140C151.931 140 147.981 140.506 144.208 141.459C132.302 111.88 103.34 91 69.5 91C25.0411 91 -11 127.041 -11 171.5C-11 174.714 -10.8116 177.884 -10.4453 181H-34C-47.2548 181 -58 191.745 -58 205C-58 218.255 -47.2548 229 -34 229H13.1617C27.6809 243.228 47.566 252 69.5 252Z" fill="white"/>
<path fill-rule="evenodd" clip-rule="evenodd" d="M60.5 161C83.487 161 104.224 151.365 118.892 135.914C126.792 141.63 136.503 145 147 145C173.51 145 195 123.51 195 97C195 70.4903 173.51 49 147 49C142.931 49 138.981 49.5063 135.208 50.4592C123.302 20.88 94.3396 0 60.5 0C16.0411 0 -20 36.0411 -20 80.5C-20 83.7141 -19.8116 86.8843 -19.4453 90H-43C-56.2548 90 -67 100.745 -67 114C-67 127.255 -56.2548 138 -43 138H4.1617C18.6809 152.228 38.566 161 60.5 161Z" fill="white"/>
</svg>
